<svg width="250" height="163" viewBox="0 0 250 163" fill="none" xmlns="http://www.w3.org/2000/svg">
<g clip-path="url(#clip0_2655_47852)">
<g opacity="0.95">
<path fill-rule="evenodd" clip-rule="evenodd" d="M127.098 49.1381C128.718 38.1765 135.743 27.3717 146.139 23.2014C147.322 22.7273 147.28 21.0371 146.075 20.6224C136.124 17.1984 122.027 22.4617 111.701 34.3045C100.741 46.8743 97.7011 62.6425 103.791 71.8897C104.089 72.3535 104.518 72.7179 105.024 72.9361C105.531 73.1544 106.09 73.2166 106.632 73.1147C119.881 70.7908 125.127 62.4721 127.098 49.1384V49.1381ZM130.986 49.7131C129.166 62.0286 123.906 72.0446 112.586 75.8025C111.316 76.2244 111.339 78.0372 112.619 78.4264C122.53 81.437 136.266 76.15 146.383 64.5469C157.329 51.9939 160.375 36.2519 154.318 26.9996C154.002 26.5063 153.539 26.1254 152.994 25.9114C152.448 25.6974 151.85 25.6612 151.283 25.808C139.963 28.6097 132.689 38.189 130.986 49.7125L130.986 49.7131Z" fill="white"/>
<path d="M115.291 24.0248C119.031 17.214 119.684 8.19914 115.643 1.46324C115.542 1.2944 115.494 1.09868 115.508 0.90229C115.521 0.705896 115.594 0.518216 115.716 0.364394C115.839 0.210572 116.006 0.0979491 116.195 0.0416271C116.383 -0.014695 116.585 -0.0120335 116.772 0.0492567C122.769 2.0202 127.768 8.83003 129.558 17.6396C123.776 19.6158 118.307 23.0781 113.782 27.055C114.22 26.0651 114.723 25.0551 115.291 24.0251L115.291 24.0248ZM112.875 22.6992C111.321 25.5294 110.164 28.384 109.561 31.206C109.352 31.4372 109.145 31.6684 108.942 31.8999C106.749 34.4114 104.794 37.1222 103.105 39.9972C100.304 35.9591 98.3994 30.5273 97.9844 24.463C97.1889 12.8108 102.156 2.72319 109.463 0.119617C109.848 -0.0220234 110.269 -0.0383128 110.664 0.0730846C111.059 0.184482 111.409 0.417869 111.664 0.739948C116.802 7.10243 116.807 15.5373 112.875 22.6989L112.875 22.6992Z" fill="white"/>
<path fill-rule="evenodd" clip-rule="evenodd" d="M72.4886 67.9237C73.3516 67.9237 74.0238 67.6876 74.5051 67.2155C74.9854 66.7434 75.2256 66.0756 75.2257 65.2123C75.2259 64.349 74.9857 63.6766 74.5051 63.1951C74.0242 62.7146 73.3521 62.4743 72.4886 62.4741H71.4061V67.9237H72.4886ZM72.6355 60.5234C73.6237 60.5234 74.4871 60.7194 75.2257 61.1115C75.9453 61.4841 76.5415 62.0571 76.9424 62.7612C77.3478 63.469 77.5505 64.286 77.5505 65.2121C77.5505 66.1287 77.3478 66.9434 76.9424 67.6562C76.5418 68.3642 75.943 68.9397 75.2196 69.312C74.4764 69.704 73.615 69.9 72.6355 69.8999H69.1224V60.5234H72.6355ZM67.3918 60.5234V62.3536H64.908V69.8997H62.6237V62.3536H60.1395V60.5234H67.3918ZM55.2435 69.993C54.6135 70.0033 53.9876 69.8902 53.4011 69.6598C52.8839 69.4573 52.433 69.1152 52.0988 68.6716C51.7734 68.235 51.6018 67.7097 51.584 67.0957H54.0149C54.0504 67.4423 54.1705 67.7069 54.3754 67.8896C54.5984 68.079 54.8848 68.177 55.1771 68.164C55.5155 68.164 55.7825 68.086 55.9782 67.93C56.0749 67.8529 56.152 67.7541 56.2031 67.6415C56.2543 67.5289 56.278 67.4058 56.2724 67.2822C56.2754 67.1755 56.2561 67.0694 56.2158 66.9706C56.1755 66.8718 56.1149 66.7825 56.0381 66.7084C55.8714 66.5495 55.6769 66.4226 55.4643 66.3341C55.1477 66.2052 54.8243 66.0937 54.4955 66.0003C53.9881 65.8508 53.4926 65.6631 53.0134 65.4391C52.6228 65.2457 52.2839 64.9617 52.0252 64.6109C51.7489 64.2461 51.6108 63.7698 51.6108 63.1821C51.6108 62.3096 51.9269 61.6263 52.559 61.1321C53.1912 60.6379 54.0148 60.3909 55.0299 60.3911C56.0626 60.3911 56.8953 60.6381 57.5279 61.1321C58.1595 61.6266 58.4976 62.3143 58.5423 63.1954H56.0724C56.0697 63.0596 56.0386 62.9259 55.981 62.8029C55.9234 62.6799 55.8406 62.5704 55.738 62.4815C55.5158 62.3016 55.2356 62.2089 54.9499 62.2207C54.7076 62.2093 54.4697 62.2881 54.2821 62.4418C54.1127 62.588 54.0288 62.7997 54.0288 63.0754C54.0288 63.378 54.171 63.614 54.4554 63.7834C54.7399 63.9528 55.185 64.1353 55.791 64.3311C56.295 64.4951 56.788 64.6914 57.2668 64.9188C57.6522 65.1116 57.9883 65.3903 58.2489 65.7334C58.5245 66.0894 58.6623 66.5479 58.6624 67.1089C58.6682 67.623 58.5271 68.1281 58.2557 68.5648C57.967 69.0159 57.5576 69.377 57.0739 69.607C56.5572 69.8649 55.9471 69.9935 55.2435 69.993ZM46.3272 62.354V64.2501H49.3858V66.0132H46.3272V68.0697H49.7864V69.9H44.0438V60.5234H49.7864V62.3536L46.3272 62.354Z" fill="white"/>
<path fill-rule="evenodd" clip-rule="evenodd" d="M191.915 68.3642C192.218 68.1238 192.356 68.0127 192.329 68.031C193.202 67.3101 193.89 66.7178 194.393 66.2544C194.872 65.819 195.299 65.3306 195.668 64.7987C196.015 64.2911 196.189 63.7969 196.189 63.3161C196.189 62.9507 196.104 62.6657 195.935 62.4609C195.766 62.2561 195.512 62.1537 195.174 62.1536C195.02 62.1473 194.868 62.1788 194.729 62.2453C194.59 62.3118 194.47 62.4113 194.379 62.535C194.188 62.7884 194.093 63.1465 194.093 63.6095H191.889C191.906 62.8529 192.069 62.2208 192.376 61.713C192.66 61.2265 193.083 60.8361 193.591 60.5915C194.116 60.3461 194.689 60.2226 195.268 60.2303C196.327 60.2303 197.126 60.502 197.665 61.0453C198.204 61.5886 198.473 62.2965 198.473 63.1689C198.473 64.1217 198.148 65.0053 197.497 65.8199C196.848 66.6348 196.02 67.4294 195.013 68.2036H198.62V70.0608H191.915L191.915 68.3642ZM183.707 68.3642C184.01 68.1238 184.148 68.0127 184.121 68.031C184.994 67.3101 185.682 66.7178 186.185 66.2544C186.664 65.8189 187.091 65.3306 187.46 64.7987C187.808 64.2911 187.981 63.7969 187.98 63.3161C187.98 62.9507 187.896 62.6657 187.727 62.4609C187.558 62.2562 187.304 62.1538 186.966 62.1536C186.812 62.1473 186.66 62.1788 186.521 62.2453C186.382 62.3118 186.262 62.4113 186.171 62.535C185.98 62.7884 185.884 63.1465 185.884 63.6095H183.68C183.699 62.8529 183.861 62.2208 184.168 61.713C184.452 61.2265 184.875 60.836 185.383 60.5915C185.907 60.3461 186.481 60.2227 187.06 60.2303C188.119 60.2303 188.918 60.502 189.457 61.0453C189.995 61.5886 190.265 62.2965 190.264 63.1689C190.264 64.1217 189.94 65.0053 189.29 65.8199C188.64 66.6345 187.812 67.4291 186.805 68.2036H190.412V70.0608H183.707L183.707 68.3642ZM179.758 65.1856C179.758 64.2866 179.661 63.5945 179.465 63.109C179.268 62.6236 178.863 62.3809 178.25 62.3809C177.635 62.3809 177.229 62.6236 177.034 63.109C176.838 63.5945 176.74 64.2866 176.74 65.1856C176.732 65.6886 176.768 66.1914 176.847 66.6883C176.899 67.0432 177.049 67.3763 177.281 67.65C177.499 67.8953 177.822 68.0178 178.25 68.0176C178.677 68.0174 179 67.8948 179.217 67.65C179.449 67.3761 179.599 67.043 179.652 66.6883C179.73 66.1914 179.766 65.6886 179.758 65.1856V65.1856ZM174.496 65.1856C174.496 63.6542 174.792 62.4478 175.385 61.5663C175.977 60.6849 176.932 60.2442 178.25 60.2444C179.568 60.2444 180.522 60.685 181.114 61.5663C181.706 62.4477 182.002 63.6541 182.002 65.1856C182.002 66.7349 181.706 67.9502 181.114 68.8315C180.523 69.7136 179.568 70.1545 178.25 70.1541C176.932 70.1538 175.977 69.7129 175.385 68.8315C174.793 67.9505 174.497 66.7351 174.496 65.1856ZM166.208 68.3642C166.51 68.1238 166.648 68.0127 166.622 68.031C167.494 67.3101 168.182 66.7178 168.685 66.2544C169.164 65.819 169.592 65.3306 169.961 64.7987C170.308 64.2911 170.482 63.7969 170.482 63.3161C170.482 62.9507 170.397 62.6657 170.228 62.4609C170.059 62.2561 169.805 62.1537 169.467 62.1536C169.313 62.1474 169.16 62.1789 169.022 62.2454C168.883 62.3119 168.763 62.4113 168.672 62.535C168.481 62.7884 168.385 63.1465 168.385 63.6095H166.182C166.199 62.8529 166.361 62.2208 166.668 61.713C166.953 61.2265 167.376 60.8361 167.884 60.5915C168.408 60.3461 168.982 60.2226 169.561 60.2303C170.619 60.2303 171.418 60.502 171.958 61.0453C172.497 61.5886 172.766 62.2965 172.766 63.1689C172.766 64.1217 172.44 65.0053 171.79 65.8199C171.141 66.6348 170.313 67.4294 169.306 68.2036H172.913V70.0608H166.208L166.208 68.3642Z" fill="white"/>
<path fill-rule="evenodd" clip-rule="evenodd" d="M166.834 160.905C167.586 160.905 168.188 160.655 168.64 160.154C169.092 159.653 169.318 158.99 169.318 158.167C169.318 157.335 169.092 156.671 168.64 156.174C168.188 155.678 167.586 155.429 166.834 155.429C166.074 155.429 165.468 155.675 165.016 156.167C164.564 156.659 164.338 157.326 164.338 158.167C164.338 158.999 164.564 159.663 165.016 160.16C165.467 160.656 166.074 160.905 166.834 160.905V160.905ZM166.834 162.999C165.982 163.008 165.143 162.795 164.398 162.382C163.667 161.977 163.059 161.38 162.64 160.657C162.213 159.898 161.989 159.041 161.989 158.17C161.989 157.299 162.213 156.443 162.64 155.684C163.061 154.964 163.668 154.37 164.398 153.966C165.146 153.561 165.983 153.349 166.834 153.349C167.685 153.349 168.522 153.561 169.27 153.966C169.998 154.368 170.602 154.962 171.015 155.684C171.435 156.446 171.654 157.302 171.653 158.171C171.652 159.041 171.43 159.896 171.009 160.657C170.595 161.38 169.991 161.976 169.264 162.382C168.521 162.796 167.684 163.008 166.834 162.999V162.999ZM154.575 162.999C153.941 163.01 153.312 162.896 152.722 162.664C152.202 162.46 151.749 162.116 151.414 161.671C151.087 161.232 150.915 160.704 150.897 160.087H153.339C153.376 160.436 153.497 160.702 153.702 160.885C153.926 161.075 154.214 161.174 154.507 161.161C154.848 161.161 155.116 161.082 155.313 160.926C155.41 160.848 155.488 160.749 155.539 160.636C155.59 160.523 155.614 160.399 155.608 160.275C155.612 160.168 155.592 160.061 155.552 159.962C155.511 159.862 155.451 159.772 155.373 159.698C155.206 159.538 155.01 159.411 154.796 159.322C154.478 159.192 154.153 159.08 153.823 158.987C153.313 158.836 152.815 158.648 152.333 158.423C151.94 158.228 151.6 157.943 151.34 157.59C151.063 157.223 150.924 156.745 150.924 156.155C150.924 155.277 151.241 154.59 151.877 154.094C152.512 153.597 153.34 153.349 154.36 153.349C155.398 153.349 156.234 153.597 156.87 154.094C157.505 154.59 157.845 155.282 157.89 156.168H155.407C155.405 156.031 155.374 155.897 155.316 155.773C155.258 155.649 155.175 155.539 155.071 155.45C154.848 155.269 154.566 155.176 154.279 155.188C154.036 155.177 153.797 155.256 153.609 155.41C153.439 155.558 153.354 155.77 153.354 156.048C153.354 156.352 153.497 156.589 153.783 156.759C154.069 156.929 154.516 157.112 155.125 157.309C155.632 157.474 156.127 157.671 156.608 157.9C156.996 158.094 157.333 158.374 157.595 158.718C157.872 159.076 158.011 159.537 158.011 160.101C158.016 160.618 157.874 161.126 157.601 161.564C157.311 162.018 156.9 162.381 156.413 162.611C155.895 162.87 155.282 162.999 154.574 162.999L154.575 162.999ZM143.362 162.999C142.728 163.01 142.099 162.896 141.509 162.664C140.989 162.46 140.537 162.116 140.201 161.671C139.875 161.232 139.702 160.704 139.684 160.087H142.127C142.163 160.436 142.284 160.702 142.49 160.885C142.713 161.075 143.001 161.174 143.294 161.161C143.635 161.161 143.903 161.082 144.1 160.926C144.197 160.848 144.275 160.749 144.326 160.636C144.377 160.523 144.401 160.399 144.396 160.275C144.399 160.168 144.38 160.061 144.339 159.962C144.299 159.862 144.238 159.772 144.161 159.698C143.993 159.538 143.797 159.411 143.583 159.322C143.266 159.192 142.941 159.08 142.61 158.987C142.1 158.836 141.602 158.648 141.12 158.423C140.728 158.228 140.387 157.943 140.127 157.59C139.85 157.223 139.711 156.745 139.711 156.155C139.711 155.277 140.028 154.59 140.664 154.094C141.3 153.597 142.127 153.349 143.147 153.349C144.185 153.349 145.022 153.597 145.657 154.094C146.292 154.59 146.632 155.282 146.677 156.168H144.194C144.192 156.031 144.161 155.897 144.103 155.773C144.045 155.649 143.962 155.539 143.859 155.45C143.635 155.269 143.354 155.176 143.067 155.188C142.823 155.177 142.584 155.256 142.396 155.41C142.225 155.558 142.141 155.77 142.141 156.048C142.141 156.352 142.284 156.589 142.57 156.759C142.856 156.929 143.303 157.112 143.912 157.309C144.419 157.474 144.914 157.671 145.395 157.9C145.783 158.094 146.12 158.374 146.382 158.718C146.659 159.076 146.798 159.537 146.798 160.101C146.804 160.618 146.661 161.126 146.388 161.564C146.099 162.018 145.687 162.381 145.2 162.611C144.681 162.87 144.068 162.999 143.362 162.999V162.999ZM132.028 155.322V157.228H135.102V159H132.028V161.067H135.505V162.905H129.732V153.483H135.504V155.322L132.028 155.322ZM120.318 157.724H121.741C122.162 157.724 122.478 157.621 122.688 157.416C122.898 157.21 123.003 156.92 123.003 156.543C123.003 156.185 122.898 155.903 122.688 155.698C122.478 155.493 122.162 155.389 121.741 155.389H120.318V157.724ZM122.829 162.905L120.87 159.348H120.319V162.905H118.024V153.483H121.876C122.619 153.483 123.252 153.613 123.775 153.872C124.265 154.101 124.675 154.473 124.95 154.939C125.211 155.399 125.346 155.92 125.339 156.449C125.346 157.051 125.161 157.639 124.808 158.127C124.455 158.619 123.934 158.968 123.245 159.174L125.419 162.906L122.829 162.905ZM110.234 157.698C110.672 157.698 110.998 157.595 111.213 157.389C111.428 157.182 111.536 156.892 111.535 156.516C111.535 156.14 111.428 155.849 111.213 155.644C110.999 155.438 110.672 155.335 110.234 155.335H108.985V157.698L110.234 157.698ZM113.871 156.516C113.877 157.039 113.747 157.555 113.495 158.013C113.226 158.483 112.824 158.863 112.341 159.107C111.822 159.384 111.178 159.523 110.408 159.523H108.985V162.905H106.69V153.483H110.408C111.16 153.483 111.795 153.613 112.314 153.872C112.803 154.104 113.21 154.478 113.481 154.946C113.747 155.426 113.881 155.967 113.871 156.516L113.871 156.516ZM98.8866 162.999C98.253 163.01 97.6234 162.896 97.0337 162.663C96.5141 162.46 96.0612 162.116 95.7257 161.67C95.399 161.232 95.2268 160.704 95.209 160.086H97.6511C97.6873 160.436 97.8083 160.702 98.0139 160.885C98.2379 161.075 98.5254 161.173 98.8189 161.16C99.1599 161.16 99.4275 161.082 99.6247 160.925C99.7218 160.848 99.7993 160.749 99.8506 160.636C99.9019 160.523 99.9257 160.399 99.92 160.275C99.9233 160.168 99.9041 160.061 99.8636 159.961C99.8232 159.862 99.7623 159.772 99.6851 159.698C99.5174 159.538 99.3218 159.411 99.108 159.322C98.7902 159.192 98.4654 159.08 98.135 158.986C97.6248 158.836 97.1267 158.648 96.6449 158.423C96.2522 158.228 95.9117 157.943 95.6514 157.59C95.3745 157.223 95.2359 156.745 95.2355 156.155C95.2355 155.277 95.5532 154.59 96.1885 154.093C96.8239 153.597 97.6516 153.349 98.6716 153.349C99.7096 153.349 100.546 153.597 101.181 154.093C101.816 154.59 102.157 155.281 102.202 156.167H99.7189C99.7167 156.031 99.6856 155.896 99.6278 155.772C99.57 155.649 99.4866 155.538 99.3833 155.449C99.1598 155.269 98.8783 155.176 98.5913 155.187C98.348 155.176 98.1092 155.255 97.9207 155.409C97.7505 155.557 97.6657 155.769 97.6657 156.047C97.6657 156.351 97.8088 156.588 98.0949 156.758C98.3811 156.928 98.8284 157.112 99.4369 157.308C99.9437 157.473 100.439 157.671 100.921 157.899C101.308 158.093 101.645 158.373 101.907 158.718C102.184 159.076 102.323 159.537 102.323 160.1C102.329 160.617 102.186 161.125 101.913 161.563C101.624 162.017 101.212 162.38 100.725 162.61C100.207 162.869 99.5938 162.999 98.8865 162.999L98.8866 162.999ZM87.5522 155.322V157.228H90.626V158.999H87.5525V161.066H91.0291V162.905H85.2578V153.483H91.0291V155.322H87.5522Z" fill="white"/>
<path fill-rule="evenodd" clip-rule="evenodd" d="M179.229 157.195H205.743V159.151H179.229V157.195ZM51.1666 157.195H77.6818V159.151H51.1666V157.195Z" fill="white"/>
</g>
<path d="M15.7235 131.928C12.7414 131.928 10.1047 131.347 7.81352 130.183C5.55871 129.019 3.79487 127.382 2.522 125.273C1.28549 123.127 0.667236 120.654 0.667236 117.854V106.835C0.667236 104.071 1.28549 101.634 2.522 99.5247C3.79487 97.4154 5.55871 95.7788 7.81352 94.615C10.1047 93.4513 12.7414 92.8694 15.7235 92.8694C18.7057 92.8694 21.3242 93.4149 23.579 94.5059C25.8702 95.597 27.634 97.1426 28.8705 99.1428C30.1434 101.107 30.7798 103.398 30.7798 106.016C30.7798 106.344 30.5071 106.544 29.9616 106.616L21.3424 107.162H21.1787C20.7423 107.162 20.5241 106.962 20.5241 106.562C20.5241 105.071 20.0877 103.889 19.2148 103.016C18.342 102.107 17.1782 101.652 15.7235 101.652C14.2688 101.652 13.105 102.107 12.2322 103.016C11.3594 103.889 10.923 105.071 10.923 106.562V118.291C10.923 119.745 11.3594 120.927 12.2322 121.836C13.105 122.709 14.2688 123.146 15.7235 123.146C17.1782 123.146 18.342 122.709 19.2148 121.836C20.0877 120.927 20.5241 119.745 20.5241 118.291C20.5241 118.072 20.5968 117.909 20.7423 117.8C20.8878 117.69 21.0878 117.654 21.3424 117.69L29.9616 118.127C30.5071 118.163 30.7798 118.345 30.7798 118.672C30.7798 121.291 30.1434 123.6 28.8705 125.6C27.634 127.601 25.8702 129.165 23.579 130.292C21.3242 131.383 18.7057 131.928 15.7235 131.928Z" fill="white"/>
<path d="M59.5836 131.492C59.0745 131.492 58.7653 131.256 58.6562 130.783L57.4561 126.528C57.3834 126.382 57.2924 126.31 57.1833 126.31H45.6183C45.5092 126.31 45.4183 126.382 45.3456 126.528L44.1454 130.783C44.0363 131.256 43.7272 131.492 43.2181 131.492H33.8897C33.2351 131.492 32.9987 131.183 33.1805 130.565L44.691 93.9604C44.8364 93.524 45.1456 93.3058 45.6183 93.3058H57.1833C57.6561 93.3058 57.9652 93.524 58.1107 93.9604L69.6211 130.565C69.6575 130.637 69.6757 130.747 69.6757 130.892C69.6757 131.292 69.4211 131.492 68.912 131.492H59.5836ZM47.7459 118.127C47.7095 118.345 47.7822 118.454 47.9641 118.454H54.783C55.0013 118.454 55.074 118.345 55.0013 118.127L51.5099 105.907C51.4736 105.798 51.419 105.744 51.3463 105.744C51.2735 105.744 51.219 105.798 51.1826 105.907L47.7459 118.127Z" fill="white"/>
<path d="M101.69 101.27C101.69 101.525 101.618 101.725 101.472 101.87C101.327 102.016 101.127 102.089 100.872 102.089H84.6156C84.4338 102.089 84.3429 102.18 84.3429 102.361V107.489C84.3429 107.671 84.4338 107.762 84.6156 107.762H94.7077C94.9623 107.762 95.1623 107.835 95.3078 107.98C95.4533 108.126 95.526 108.326 95.526 108.58V115.672C95.526 115.927 95.4533 116.127 95.3078 116.272C95.1623 116.418 94.9623 116.49 94.7077 116.49H84.6156C84.4338 116.49 84.3429 116.581 84.3429 116.763V130.674C84.3429 130.928 84.2701 131.128 84.1247 131.274C83.9792 131.419 83.7792 131.492 83.5246 131.492H74.9054C74.6508 131.492 74.4508 131.419 74.3053 131.274C74.1599 131.128 74.0871 130.928 74.0871 130.674V94.1241C74.0871 93.8695 74.1599 93.6695 74.3053 93.524C74.4508 93.3785 74.6508 93.3058 74.9054 93.3058H100.872C101.127 93.3058 101.327 93.3785 101.472 93.524C101.618 93.6695 101.69 93.8695 101.69 94.1241V101.27Z" fill="white"/>
<path d="M132.987 101.27C132.987 101.525 132.915 101.725 132.769 101.87C132.624 102.016 132.424 102.089 132.169 102.089H115.913C115.731 102.089 115.64 102.18 115.64 102.361V107.489C115.64 107.671 115.731 107.762 115.913 107.762H126.005C126.259 107.762 126.459 107.835 126.605 107.98C126.75 108.126 126.823 108.326 126.823 108.58V115.672C126.823 115.927 126.75 116.127 126.605 116.272C126.459 116.418 126.259 116.49 126.005 116.49H115.913C115.731 116.49 115.64 116.581 115.64 116.763V130.674C115.64 130.928 115.567 131.128 115.422 131.274C115.276 131.419 115.076 131.492 114.822 131.492H106.202C105.948 131.492 105.748 131.419 105.602 131.274C105.457 131.128 105.384 130.928 105.384 130.674V94.1241C105.384 93.8695 105.457 93.6695 105.602 93.524C105.748 93.3785 105.948 93.3058 106.202 93.3058H132.169C132.424 93.3058 132.624 93.3785 132.769 93.524C132.915 93.6695 132.987 93.8695 132.987 94.1241V101.27Z" fill="white"/>
<path d="M164.339 101.27C164.339 101.525 164.266 101.725 164.121 101.87C163.975 102.016 163.775 102.089 163.521 102.089H147.21C147.028 102.089 146.937 102.18 146.937 102.361V107.489C146.937 107.671 147.028 107.762 147.21 107.762H157.302C157.556 107.762 157.756 107.835 157.902 107.98C158.047 108.126 158.12 108.326 158.12 108.58V115.672C158.12 115.927 158.047 116.127 157.902 116.272C157.756 116.418 157.556 116.49 157.302 116.49H147.21C147.028 116.49 146.937 116.581 146.937 116.763V122.436C146.937 122.618 147.028 122.709 147.21 122.709H163.521C163.775 122.709 163.975 122.782 164.121 122.927C164.266 123.073 164.339 123.273 164.339 123.527V130.674C164.339 130.928 164.266 131.128 164.121 131.274C163.975 131.419 163.775 131.492 163.521 131.492H137.499C137.245 131.492 137.045 131.419 136.899 131.274C136.754 131.128 136.681 130.928 136.681 130.674V94.1241C136.681 93.8695 136.754 93.6695 136.899 93.524C137.045 93.3785 137.245 93.3058 137.499 93.3058H163.521C163.775 93.3058 163.975 93.3785 164.121 93.524C164.266 93.6695 164.339 93.8695 164.339 94.1241V101.27Z" fill="white"/>
<path d="M169.702 131.492C169.447 131.492 169.247 131.419 169.102 131.274C168.956 131.128 168.884 130.928 168.884 130.674V94.1241C168.884 93.8695 168.956 93.6695 169.102 93.524C169.247 93.3785 169.447 93.3058 169.702 93.3058H178.321C178.576 93.3058 178.776 93.3785 178.921 93.524C179.067 93.6695 179.139 93.8695 179.139 94.1241V130.674C179.139 130.928 179.067 131.128 178.921 131.274C178.776 131.419 178.576 131.492 178.321 131.492H169.702Z" fill="white"/>
<path d="M205.849 94.1241C205.849 93.8695 205.922 93.6695 206.068 93.524C206.213 93.3785 206.413 93.3058 206.668 93.3058H215.287C215.541 93.3058 215.741 93.3785 215.887 93.524C216.032 93.6695 216.105 93.8695 216.105 94.1241V130.674C216.105 130.928 216.032 131.128 215.887 131.274C215.741 131.419 215.541 131.492 215.287 131.492H207.049C206.613 131.492 206.286 131.31 206.068 130.947L194.939 112.399C194.866 112.29 194.794 112.253 194.721 112.29C194.648 112.29 194.612 112.363 194.612 112.508L194.721 130.674C194.721 130.928 194.648 131.128 194.503 131.274C194.357 131.419 194.157 131.492 193.902 131.492H185.283C185.029 131.492 184.829 131.419 184.683 131.274C184.538 131.128 184.465 130.928 184.465 130.674V94.1241C184.465 93.8695 184.538 93.6695 184.683 93.524C184.829 93.3785 185.029 93.3058 185.283 93.3058H193.521C193.957 93.3058 194.284 93.4876 194.503 93.8513L205.577 112.399C205.649 112.508 205.722 112.563 205.795 112.563C205.868 112.526 205.904 112.435 205.904 112.29L205.849 94.1241Z" fill="white"/>
<path d="M249.12 101.27C249.12 101.525 249.047 101.725 248.902 101.87C248.756 102.016 248.556 102.089 248.302 102.089H231.991C231.809 102.089 231.718 102.18 231.718 102.361V107.489C231.718 107.671 231.809 107.762 231.991 107.762H242.083C242.337 107.762 242.537 107.835 242.683 107.98C242.828 108.126 242.901 108.326 242.901 108.58V115.672C242.901 115.927 242.828 116.127 242.683 116.272C242.537 116.418 242.337 116.49 242.083 116.49H231.991C231.809 116.49 231.718 116.581 231.718 116.763V122.436C231.718 122.618 231.809 122.709 231.991 122.709H248.302C248.556 122.709 248.756 122.782 248.902 122.927C249.047 123.073 249.12 123.273 249.12 123.527V130.674C249.12 130.928 249.047 131.128 248.902 131.274C248.756 131.419 248.556 131.492 248.302 131.492H222.28C222.026 131.492 221.826 131.419 221.68 131.274C221.535 131.128 221.462 130.928 221.462 130.674V94.1241C221.462 93.8695 221.535 93.6695 221.68 93.524C221.826 93.3785 222.026 93.3058 222.28 93.3058H248.302C248.556 93.3058 248.756 93.3785 248.902 93.524C249.047 93.6695 249.12 93.8695 249.12 94.1241V101.27Z" fill="white"/>
</g>
<defs>
<clipPath id="clip0_2655_47852">
<rect width="250" height="163" fill="white"/>
</clipPath>
</defs>
</svg>
